<svg xmlns="http://www.w3.org/2000/svg" viewBox="273 280 1500 1500"><rect x="273" y="280" width="1500" height="1500" rx="330" fill="#fbf6ee"/><path d="M 1025.83 423.417 C 1036.23 423.889 1044.76 424.664 1054.94 427.176 C 1072.9 431.601 1089.65 439.979 1103.97 451.7 C 1117.42 462.649 1137.91 484.762 1150.57 497.623 L 1227.92 575.889 L 1366.83 716.392 C 1392 741.852 1443.22 790.599 1460.22 818.878 C 1472.92 840.085 1481.12 863.682 1484.3 888.197 C 1487.01 909.462 1485.91 947.653 1485.97 970.767 L 1485.94 1128.8 L 1486.01 1234.82 C 1486.03 1249.84 1487.66 1278.06 1484.65 1291.87 C 1478.03 1321.12 1431.13 1319.33 1427.76 1291.87 C 1424.81 1267.96 1426.47 1235.69 1426.58 1211.58 L 1426.53 1009.84 L 1426.7 943.794 C 1426.71 912.8 1428.21 888.076 1414.83 859.316 C 1410.58 849.997 1405.03 841.332 1398.33 833.586 C 1383.05 815.944 1358.53 792.45 1341.82 775.488 C 1306.09 738.965 1270.17 702.624 1234.07 666.466 L 1121.76 552.884 C 1104.38 535.373 1087.18 517.737 1069.54 500.433 C 1042.61 474.003 1005.47 474.489 978.586 500.92 C 952.632 526.442 927.036 552.47 901.523 578.544 L 792.782 688.636 L 702.585 779.877 C 677.825 804.805 642.347 834.601 630.897 867.565 C 627.054 878.842 624.748 890.586 624.04 902.479 C 622.764 922.348 623.569 948.296 623.597 968.741 L 623.544 1088.55 L 623.608 1222.55 C 623.545 1248.83 622.991 1275.29 623.96 1301.52 C 624.567 1311.71 626.889 1320.99 630.955 1330.13 C 656.558 1386 702.007 1376.72 750.863 1377.8 C 840.347 1379.79 892.762 1380.16 974.511 1338.55 C 920.691 1288.05 807.559 1187.74 784.145 1120.11 C 770.84 1081.68 774.583 1044.07 792.056 1007.83 C 833.924 930.052 927.999 897.514 1005.25 945.802 C 1011.97 950.001 1017.86 954.366 1024.17 959.119 C 1053.57 935.327 1090.66 921.236 1128.74 923.325 C 1169.83 925.912 1208.23 944.643 1235.57 975.433 C 1261.58 1004.62 1274.84 1043 1272.37 1082.02 C 1270.26 1113.8 1259.25 1138.86 1240.73 1164.57 C 1193.35 1230.35 1133.97 1287.34 1073.3 1340.72 C 1157.15 1389.28 1264.55 1389.85 1355.98 1367.88 C 1394.08 1358.72 1427.91 1349.19 1467 1341.28 C 1528.11 1328.93 1590.31 1322.78 1652.66 1322.92 C 1677.78 1323.2 1716.5 1317.96 1723.01 1348.99 C 1724.56 1356.6 1723.02 1364.52 1718.73 1370.99 C 1714.37 1377.67 1706.86 1383.13 1698.98 1383.53 C 1684.55 1384.26 1668.49 1382.88 1653.89 1382.68 C 1629.3 1382.39 1604.71 1383.32 1580.21 1385.45 C 1532.16 1389.53 1484.45 1396.87 1437.41 1407.44 C 1412.93 1412.92 1388.86 1419.97 1364.23 1425.16 C 1243.96 1450.51 1129.39 1444.66 1024.31 1376.4 C 961.622 1412.95 897.501 1437.28 824.31 1436.41 C 791.101 1436.02 757.593 1437.29 724.325 1436.63 C 705.007 1436.25 689.458 1437.56 670.339 1432.83 C 647.588 1427.2 626.626 1415.91 609.396 1400.01 C 581.276 1374.32 564.648 1338.41 563.242 1300.34 C 562.156 1274.95 563.079 1242.29 563.082 1216.24 L 563.041 1054.57 L 563.009 954.808 C 563.007 930.296 561.694 899.232 566.496 875.747 C 572.79 843.794 588.008 814.277 610.387 790.617 C 635.238 763.84 664.731 735.069 690.627 708.715 L 836.737 560.066 L 902.164 493.412 C 942.362 452.409 964.224 425.678 1025.83 423.417 z" fill="#b8472f"/><path d="M 919.493 980.344 C 975.05 973.803 997.508 1025.76 1024.56 1026.04 C 1047.59 1026.28 1069.98 980.979 1121.21 980.313 C 1146.38 979.987 1169.7 990.769 1187.44 1008.35 C 1204.63 1025.39 1215.53 1048.37 1215.55 1072.78 C 1215.63 1084.85 1213.12 1096.8 1208.21 1107.82 C 1192.47 1142.96 1131.55 1205.43 1103.66 1233.72 C 1079.37 1258.71 1051.38 1284.2 1025.32 1307.24 C 1001.61 1287.15 978.012 1264.87 955.473 1242.78 C 916.58 1203.8 873.947 1164.17 845.833 1116.25 C 811.003 1056.88 854.895 988.754 919.493 980.344 z" fill="#fbf6ee"/><path d="M 517.606 1494.44 C 577.094 1493.11 625.213 1500.7 681.075 1522.66 C 701.222 1530.58 720.145 1540 739.817 1548.03 C 772.477 1561.19 806.999 1569.14 842.123 1571.59 C 894.576 1575.01 947.12 1566.48 995.797 1546.64 C 1023.88 1535.23 1047.32 1523.26 1077.02 1513.38 C 1110.56 1502.35 1145.45 1495.99 1180.73 1494.47 C 1234.31 1492.07 1287.85 1500.03 1338.41 1517.92 C 1360.49 1525.76 1378.53 1535.18 1399.64 1544.13 C 1441.8 1562.02 1489.59 1573.16 1535.48 1573.01 C 1575.75 1572.73 1614.13 1563.78 1651.95 1550.12 C 1673.31 1542.41 1697.7 1522.92 1717.34 1546.19 C 1721.85 1551.52 1724.54 1559.04 1724.77 1566.04 C 1725.6 1590.93 1698.93 1598.94 1680.35 1606.6 C 1630.4 1627.09 1581.28 1635.88 1527.5 1636.34 C 1481.47 1635.52 1435.92 1626.83 1392.82 1610.66 C 1382.17 1606.69 1370.73 1602.05 1360.61 1597.05 C 1278.25 1556.3 1183.4 1545.61 1095.24 1573.88 C 1069.91 1582.01 1049.09 1593.54 1024.78 1604.08 C 981.404 1622.66 935.067 1633.37 887.938 1635.7 C 834.251 1638.47 780.537 1630.76 729.794 1613.01 C 704.497 1604.11 687.462 1594.33 663.609 1584.25 C 615.726 1564.18 563.857 1555.42 512.037 1558.66 C 474.633 1560.95 437.897 1569.62 403.412 1584.29 C 389.631 1590.13 376.236 1599.14 361.479 1602.07 C 343.707 1605.6 326.15 1590.65 324.554 1572.96 C 322.626 1547.34 349.888 1538.33 368.428 1529.97 C 417.256 1507.95 464.425 1497.6 517.606 1494.44 z" fill="#0f5e78"/></svg>
